HIERARCHY
ROOT hip
{
  OFFSET 56.258 84.2577 237.64
  CHANNELS 6 Xposition Yposition Zposition Zrotation Xrotation Yrotation
  JOINT abdomen
  {
    OFFSET 0 20.6881 -0.73152
    CHANNELS 3 Zrotation Xrotation Yrotation
    JOINT chest
    {
      OFFSET 0 11.7043 -0.48768
      CHANNELS 3 Zrotation Xrotation Yrotation
      JOINT neck
      {
        OFFSET 0 22.1894 -2.19456
        CHANNELS 3 Zrotation Xrotation Yrotation
        JOINT head
        {
          OFFSET -0.24384 7.07133 1.2192
          CHANNELS 3 Zrotation Xrotation Yrotation
          JOINT leftEye
          {
            OFFSET 4.14528 8.04674 8.04672
            CHANNELS 3 Zrotation Xrotation Yrotation
            End Site
            {
              OFFSET 1 0 0
            }
          }
          JOINT rightEye
          {
            OFFSET -3.6576 8.04674 8.04672
            CHANNELS 3 Zrotation Xrotation Yrotation
            End Site
            {
              OFFSET 1 0 0
            }
          }
        }
      }
      JOINT rCollar
      {
        OFFSET -2.68224 19.2634 -4.8768
        CHANNELS 3 Zrotation Xrotation Yrotation
        JOINT rShldr
        {
          OFFSET -8.77824 -1.95073 1.46304
          CHANNELS 3 Zrotation Xrotation Yrotation
          JOINT rForeArm
          {
            OFFSET -28.1742 -1.7115 0.48768
            CHANNELS 3 Zrotation Xrotation Yrotation
            JOINT rHand
            {
              OFFSET -22.5879 0.773209 7.07136
              CHANNELS 3 Zrotation Xrotation Yrotation
              JOINT rThumb1
              {
                OFFSET -1.2192 -0.487915 3.41376
                CHANNELS 3 Zrotation Xrotation Yrotation
                JOINT rThumb2
                {
                  OFFSET -3.37035 -0.52449 3.41376
                  CHANNELS 3 Zrotation Xrotation Yrotation
                  End Site
                  {
                    OFFSET -1.78271 -1.18214 1.43049
                  }
                }
              }
              JOINT rIndex1
              {
                OFFSET -7.75947 0.938293 5.60832
                CHANNELS 3 Zrotation Xrotation Yrotation
                JOINT rIndex2
                {
                  OFFSET -2.54057 -0.884171 1.56538
                  CHANNELS 3 Zrotation Xrotation Yrotation
                  End Site
                  {
                    OFFSET -1.62519 -0.234802 1.16502
                  }
                }
              }
              JOINT rMid1
              {
                OFFSET -8.24714 1.18213 3.41376
                CHANNELS 3 Zrotation Xrotation Yrotation
                JOINT rMid2
                {
                  OFFSET -3.10165 -0.590103 1.0647
                  CHANNELS 3 Zrotation Xrotation Yrotation
                  End Site
                  {
                    OFFSET -2.48547 -0.328903 0.83742
                  }
                }
              }
              JOINT rRing1
              {
                OFFSET -8.82822 0.546677 1.51678
                CHANNELS 3 Zrotation Xrotation Yrotation
                JOINT rRing2
                {
                  OFFSET -2.60934 -0.819778 -0.0198488
                  CHANNELS 3 Zrotation Xrotation Yrotation
                  End Site
                  {
                    OFFSET -2.33842 -0.294052 0.168128
                  }
                }
              }
              JOINT rPinky1
              {
                OFFSET -8.27202 -0.0477905 -0.4584
                CHANNELS 3 Zrotation Xrotation Yrotation
                JOINT rPinky2
                {
                  OFFSET -1.82734 -0.647385 -0.700984
                  CHANNELS 3 Zrotation Xrotation Yrotation
                  End Site
                  {
                    OFFSET -1.69225 -0.51767 -0.607171
                  }
                }
              }
            }
          }
        }
      }
      JOINT lCollar
      {
        OFFSET 2.68224 19.2634 -4.8768
        CHANNELS 3 Zrotation Xrotation Yrotation
        JOINT lShldr
        {
          OFFSET 8.77824 -1.95073 1.46304
          CHANNELS 3 Zrotation Xrotation Yrotation
          JOINT lForeArm
          {
            OFFSET 28.1742 -1.7115 0.48768
            CHANNELS 3 Zrotation Xrotation Yrotation
            JOINT lHand
            {
              OFFSET 22.5879 0.773209 7.07136
              CHANNELS 3 Zrotation Xrotation Yrotation
              JOINT lThumb1
              {
                OFFSET 1.2192 -0.487915 3.41376
                CHANNELS 3 Zrotation Xrotation Yrotation
                JOINT lThumb2
                {
                  OFFSET 3.37035 -0.52449 3.41376
                  CHANNELS 3 Zrotation Xrotation Yrotation
                  End Site
                  {
                    OFFSET 1.78271 -1.18214 1.43049
                  }
                }
              }
              JOINT lIndex1
              {
                OFFSET 7.75947 0.938293 5.60832
                CHANNELS 3 Zrotation Xrotation Yrotation
                JOINT lIndex2
                {
                  OFFSET 2.54057 -0.884171 1.56538
                  CHANNELS 3 Zrotation Xrotation Yrotation
                  End Site
                  {
                    OFFSET 1.62519 -0.234802 1.16502
                  }
                }
              }
              JOINT lMid1
              {
                OFFSET 8.24714 1.18213 3.41376
                CHANNELS 3 Zrotation Xrotation Yrotation
                JOINT lMid2
                {
                  OFFSET 3.10165 -0.590103 1.0647
                  CHANNELS 3 Zrotation Xrotation Yrotation
                  End Site
                  {
                    OFFSET 2.48547 -0.328903 0.83742
                  }
                }
              }
              JOINT lRing1
              {
                OFFSET 8.82822 0.546677 1.51678
                CHANNELS 3 Zrotation Xrotation Yrotation
                JOINT lRing2
                {
                  OFFSET 2.60934 -0.819778 -0.0198488
                  CHANNELS 3 Zrotation Xrotation Yrotation
                  End Site
                  {
                    OFFSET 2.33842 -0.294052 0.168128
                  }
                }
              }
              JOINT lPinky1
              {
                OFFSET 8.27202 -0.0477905 -0.4584
                CHANNELS 3 Zrotation Xrotation Yrotation
                JOINT lPinky2
                {
                  OFFSET 1.82734 -0.647385 -0.700984
                  CHANNELS 3 Zrotation Xrotation Yrotation
                  End Site
                  {
                    OFFSET 1.69225 -0.51767 -0.607171
                  }
                }
              }
            }
          }
        }
      }
    }
  }
  JOINT rButtock
  {
    OFFSET -8.77824 4.35084 1.2192
    CHANNELS 3 Zrotation Xrotation Yrotation
    JOINT rThigh
    {
      OFFSET 0 -1.70687 -2.19456
      CHANNELS 3 Zrotation Xrotation Yrotation
      JOINT rShin
      {
        OFFSET 0 -36.8199 0.73152
        CHANNELS 3 Zrotation Xrotation Yrotation
        JOINT rFoot
        {
          OFFSET 0.73152 -45.1104 -5.12064
          CHANNELS 3 Zrotation Xrotation Yrotation
          End Site
          {
            OFFSET -1.1221 -3.69964 12.103
          }
        }
      }
    }
  }
  JOINT lButtock
  {
    OFFSET 8.77824 4.35084 1.2192
    CHANNELS 3 Zrotation Xrotation Yrotation
    JOINT lThigh
    {
      OFFSET 0 -1.70687 -2.19456
      CHANNELS 3 Zrotation Xrotation Yrotation
      JOINT lShin
      {
        OFFSET 0 -36.8199 0.73152
        CHANNELS 3 Zrotation Xrotation Yrotation
        JOINT lFoot
        {
          OFFSET -0.73152 -45.1104 -5.12064
          CHANNELS 3 Zrotation Xrotation Yrotation
          End Site
          {
            OFFSET 1.1221 -3.69964 12.103
          }
        }
      }
    }
  }
}
MOTION
Frames:	9
Frame Time:	0.00833333
43.0083 85.1113 -221.704 -3.34379 8.00958 14.2639 1.91292 -0.237651 4.23578 -0.616749 -9.17404 1.25729 -7.35519 12.7187 -6.63339 8.23851 -18.1976 -11.2372 -0 0 0 -0 0 0 -3.06694e-014 1.24043e-013 -2.11066e-013 94.2384 47.9733 -27.1901 -14.0926 -7.03059 25.7381 -0.858657 25.3711 3.82058 1.91518e-009 -4.69293e-010 4.83339e-010 3.31969e-009 -7.85447e-010 7.93015e-010 1.91518e-009 -4.69296e-010 4.83332e-010 7.73091 5.47488 0.417314 1.91517e-009 -4.69298e-010 4.83351e-010 2.90554 0.965183 0.102902 1.91518e-009 -4.69293e-010 4.83343e-010 10.2786 0.731801 0.0259123 1.91517e-009 -4.6929e-010 4.83351e-010 2.22167 -0.733487 -0.20892 -3.06918e-014 1.24043e-013 -2.11266e-013 -84.2136 33.9146 23.3839 14.7887 -7.61075 -27.1507 0.530005 20.2936 -2.97759 -4.18144e-010 1.69108e-010 -7.63325e-011 -7.22461e-010 2.95467e-010 -1.21454e-010 -4.1814e-010 1.69115e-010 -7.63257e-011 -7.73091 5.47488 -0.417314 -4.18139e-010 1.69116e-010 -7.6335e-011 -2.90554 0.965183 -0.102902 -4.18149e-010 1.69116e-010 -7.63348e-011 -10.2786 0.731801 -0.0259123 -4.18143e-010 1.69114e-010 -7.63423e-011 -2.22167 -0.733487 0.20892 -2.03217e-016 0 -3.88251e-019 16.2734 -14.5791 19.9459 0.0244456 29.3907 1.236 -35.0581 -24.647 -54.5238 2.03217e-016 0 3.88251e-019 -7.49665 -18.3761 -26.513 0.175761 30.5112 -0.746648 7.49968 -19.6082 16.4155 
43.0483 85.093 -221.812 -3.43352 7.96334 14.3811 1.94993 -0.195235 4.35379 -0.559674 -9.14343 1.29581 -7.35518 12.7648 -6.73264 8.27496 -18.1536 -11.432 -0 0 0 -0 0 0 3.79877e-015 3.00165e-014 -3.24267e-013 93.8061 48.0357 -26.6596 -14.2672 -7.17208 26.0932 -0.807595 24.6415 3.6963 1.55351e-009 -3.52732e-010 6.9969e-011 2.68714e-009 -5.89732e-010 8.95247e-011 1.55351e-009 -3.52735e-010 6.99627e-011 7.73091 5.47488 0.417314 1.55351e-009 -3.52737e-010 6.99849e-011 2.90554 0.965183 0.102902 1.55352e-009 -3.52731e-010 6.99754e-011 10.2786 0.731801 0.0259123 1.5535e-009 -3.52728e-010 6.99849e-011 2.22167 -0.733487 -0.20892 3.7553e-015 3.00165e-014 -3.24516e-013 -84.9697 33.9801 24.4792 15.027 -7.81376 -27.6443 0.453155 18.7819 -2.73946 -2.15562e-012 2.13422e-010 -5.12527e-010 -1.25668e-011 3.66998e-010 -8.83877e-010 -2.15165e-012 2.1343e-010 -5.12521e-010 -7.73091 5.47488 -0.417314 -2.14976e-012 2.13432e-010 -5.1253e-010 -2.90554 0.965183 -0.102902 -2.1596e-012 2.13432e-010 -5.12531e-010 -10.2786 0.731801 -0.0259123 -2.15542e-012 2.1343e-010 -5.12537e-010 -2.22167 -0.733487 0.20892 -2.03217e-016 0 -3.88251e-019 16.3223 -14.5097 20.049 0.0260067 29.3152 1.23546 -35.1401 -24.6859 -54.5846 2.03217e-016 0 3.88251e-019 -7.32985 -18.4977 -26.2422 0.176798 30.5553 -0.744269 7.31844 -19.6772 15.9835 
43.1339 85.0394 -221.906 -3.48087 7.91335 14.5244 1.9374 -0.121975 4.38984 -0.481667 -9.06977 1.31144 -7.38285 12.7434 -6.80282 8.29663 -18.1455 -11.5621 -0 0 0 -0 0 0 2.41713e-014 1.49766e-015 -2.68012e-013 93.112 47.7388 -25.8903 -14.4147 -7.29363 26.3929 -0.774737 24.1633 3.6154 1.18519e-009 -3.11242e-010 -5.17779e-011 2.04822e-009 -5.233e-010 -1.12375e-010 1.18519e-009 -3.11245e-010 -5.17828e-011 7.73091 5.47488 0.417314 1.18519e-009 -3.11247e-010 -5.1763e-011 2.90554 0.965183 0.102902 1.1852e-009 -3.11242e-010 -5.17713e-011 10.2786 0.731801 0.0259123 1.18518e-009 -3.11238e-010 -5.17625e-011 2.22167 -0.733487 -0.20892 2.41179e-014 1.49698e-015 -2.68272e-013 -85.725 34.0199 25.485 15.2392 -7.99894 -28.0825 0.383311 17.3582 -2.51773 -6.2218e-011 1.56955e-010 -4.82846e-010 -1.16789e-010 2.68457e-010 -8.33077e-010 -6.22148e-011 1.56962e-010 -4.82841e-010 -7.73091 5.47488 -0.417314 -6.22123e-011 1.56964e-010 -4.8285e-010 -2.90554 0.965183 -0.102902 -6.2223e-011 1.56964e-010 -4.8285e-010 -10.2786 0.731801 -0.0259123 -6.22163e-011 1.56963e-010 -4.82856e-010 -2.22167 -0.733487 0.20892 -2.03217e-016 0 -3.88251e-019 16.378 -14.4138 20.2258 0.0281394 29.226 1.24682 -35.5779 -24.8512 -54.8658 2.03217e-016 0 3.88251e-019 -7.2275 -18.6085 -25.9761 0.177439 30.5864 -0.740916 7.15697 -19.7679 15.5911 
43.2225 84.9803 -221.985 -3.49601 7.86654 14.675 1.88195 -0.0347832 4.36613 -0.380523 -8.9605 1.31104 -7.42722 12.6725 -6.84885 8.30886 -18.175 -11.6388 -0 0 0 -0 0 0 3.82405e-014 8.56127e-015 -1.08804e-013 92.2581 47.2016 -24.9713 -14.5491 -7.40609 26.6656 -0.749177 23.7921 3.55275 7.78284e-010 -3.06897e-010 -2.12219e-011 1.34524e-009 -5.21366e-010 -5.16266e-011 7.78286e-010 -3.06899e-010 -2.12244e-011 7.73091 5.47488 0.417314 7.78282e-010 -3.069e-010 -2.12105e-011 2.90554 0.965183 0.102902 7.78291e-010 -3.06896e-010 -2.12161e-011 10.2786 0.731801 0.0259123 7.7828e-010 -3.06893e-010 -2.12095e-011 2.22167 -0.733487 -0.20892 3.81823e-014 8.55979e-015 -1.09058e-013 -86.5122 34.0836 26.4445 15.442 -8.17945 -28.5017 0.317746 15.9085 -2.29504 -3.96521e-010 3.62166e-011 -1.8307e-010 -6.90074e-010 6.1112e-011 -3.1098e-010 -3.9652e-010 3.62211e-011 -1.83067e-010 -7.73091 5.47488 -0.417314 -3.96516e-010 3.62231e-011 -1.83074e-010 -2.90554 0.965183 -0.102902 -3.96528e-010 3.62223e-011 -1.83073e-010 -10.2786 0.731801 -0.0259123 -3.96516e-010 3.62226e-011 -1.83079e-010 -2.22167 -0.733487 0.20892 -2.03217e-016 0 -3.88251e-019 16.4321 -14.3044 20.4437 0.0307472 29.1245 1.26616 -36.2604 -25.1052 -55.2928 2.03217e-016 0 3.88251e-019 -7.16817 -18.7126 -25.7115 0.177751 30.6036 -0.736835 7.00963 -19.8771 15.2263 
43.2844 84.9434 -222.075 -3.47987 7.81977 14.8008 1.80042 0.0714729 4.32249 -0.291083 -8.86727 1.3038 -7.46348 12.5888 -6.87379 8.30282 -18.2005 -11.6766 -0 0 0 -0 0 0 4.75967e-014 3.43803e-014 7.22683e-014 91.4009 46.5527 -24.0211 -14.6559 -7.49626 26.8829 -0.731233 23.5321 3.50891 4.68364e-010 -3.2001e-010 6.43696e-011 8.10832e-010 -5.47813e-010 1.01666e-010 4.68365e-010 -3.20011e-010 6.43689e-011 7.73091 5.47488 0.417314 4.68362e-010 -3.20012e-010 6.43764e-011 2.90554 0.965183 0.102902 4.68371e-010 -3.2001e-010 6.4374e-011 10.2786 0.731801 0.0259123 4.6836e-010 -3.20007e-010 6.43782e-011 2.22167 -0.733487 -0.20892 4.75358e-014 3.43781e-014 7.20222e-014 -87.2738 34.1129 27.3545 15.6107 -8.33131 -28.8531 0.266895 14.6263 -2.10121 -8.33571e-010 -1.03474e-010 2.00945e-010 -1.43938e-009 -1.78335e-010 3.5853e-010 -8.33571e-010 -1.03472e-010 2.00946e-010 -7.73091 5.47488 -0.417314 -8.33567e-010 -1.03471e-010 2.00941e-010 -2.90554 0.965183 -0.102902 -8.3358e-010 -1.03472e-010 2.00943e-010 -10.2786 0.731801 -0.0259123 -8.33563e-010 -1.03471e-010 2.00936e-010 -2.22167 -0.733487 0.20892 -2.03217e-016 0 -3.88251e-019 16.457 -14.2065 20.6326 0.0330268 29.0437 1.28714 -36.957 -25.3697 -55.7127 2.03217e-016 0 3.88251e-019 -7.1588 -18.7798 -25.4892 0.177585 30.5958 -0.733206 6.91693 -19.981 14.9862 
43.3489 84.9187 -222.168 -3.43345 7.76996 14.87 1.70941 0.201908 4.29877 -0.248262 -8.84179 1.29888 -7.46675 12.5291 -6.88072 8.26982 -18.1805 -11.6899 -0 0 0 -0 0 0 5.38298e-014 6.21276e-014 1.94113e-013 90.6785 45.9266 -23.1427 -14.7209 -7.55113 27.0162 -0.721429 23.3872 3.48459 3.90998e-010 -3.30895e-010 1.07729e-010 6.77635e-010 -5.66524e-010 1.77399e-010 3.90999e-010 -3.30897e-010 1.07729e-010 7.73091 5.47488 0.417314 3.90996e-010 -3.30896e-010 1.07732e-010 2.90554 0.965183 0.102902 3.91006e-010 -3.30895e-010 1.07732e-010 10.2786 0.731801 0.0259123 3.90995e-010 -3.30893e-010 1.07735e-010 2.22167 -0.733487 -0.20892 5.37659e-014 6.21253e-014 1.93865e-013 -87.9479 34.0509 28.2093 15.7218 -8.4313 -29.0875 0.236082 13.7058 -1.96422 -1.20187e-009 -2.16799e-010 4.83343e-010 -2.07167e-009 -3.73184e-010 8.51569e-010 -1.20188e-009 -2.16799e-010 4.83343e-010 -7.73091 5.47488 -0.417314 -1.20187e-009 -2.16798e-010 4.83339e-010 -2.90554 0.965183 -0.102902 -1.20188e-009 -2.16799e-010 4.83343e-010 -10.2786 0.731801 -0.0259123 -1.20186e-009 -2.16797e-010 4.83333e-010 -2.22167 -0.733487 0.20892 -2.03217e-016 0 -3.88251e-019 16.4256 -14.1448 20.7227 0.0340795 29.0166 1.30343 -37.4315 -25.574 -55.9691 2.03217e-016 0 3.88251e-019 -7.20682 -18.7796 -25.3501 0.176792 30.5519 -0.731211 6.92042 -20.0554 14.9683 
43.4516 84.9105 -222.24 -3.34255 7.70572 14.8694 1.60182 0.392238 4.3001 -0.281407 -8.93575 1.29538 -7.41194 12.5102 -6.8624 8.19396 -18.0938 -11.6715 -0 0 0 -0 0 0 5.48853e-014 1.03325e-013 2.31816e-013 90.1269 45.3174 -22.347 -14.7293 -7.55793 27.0339 -0.722857 23.4076 3.48803 7.57358e-010 -3.80044e-010 1.10405e-010 1.31065e-009 -6.43775e-010 1.73896e-010 7.57359e-010 -3.80044e-010 1.10403e-010 7.73091 5.47488 0.417314 7.57356e-010 -3.80044e-010 1.10405e-010 2.90554 0.965183 0.102902 7.57365e-010 -3.80044e-010 1.10407e-010 10.2786 0.731801 0.0259123 7.57353e-010 -3.80041e-010 1.10411e-010 2.22167 -0.733487 -0.20892 5.48199e-014 1.03323e-013 2.31545e-013 -88.5252 33.9185 29.0501 15.7728 -8.47639 -29.1975 0.22206 13.2224 -1.89308 -1.54356e-009 -3.00994e-010 6.67778e-010 -2.66003e-009 -5.19191e-010 1.17515e-009 -1.54357e-009 -3.00992e-010 6.6778e-010 -7.73091 5.47488 -0.417314 -1.54356e-009 -3.00992e-010 6.67777e-010 -2.90554 0.965183 -0.102902 -1.54357e-009 -3.00993e-010 6.67781e-010 -10.2786 0.731801 -0.0259123 -1.54356e-009 -3.00991e-010 6.67768e-010 -2.22167 -0.733487 0.20892 -2.03217e-016 0 -3.88251e-019 16.3232 -14.1075 20.695 0.033636 29.0519 1.31508 -37.6596 -25.7489 -56.019 2.03217e-016 0 3.88251e-019 -7.3438 -18.6823 -25.3385 0.175099 30.4637 -0.731729 7.07686 -20.0644 15.3104 
43.5603 84.9015 -222.29 -3.21172 7.63216 14.8178 1.47255 0.628279 4.30712 -0.365248 -9.10895 1.28955 -7.31841 12.5101 -6.81989 8.08422 -17.9658 -11.6173 -0 0 0 -0 0 0 5.07414e-014 1.61611e-013 2.29721e-013 89.6736 44.6686 -21.5857 -14.6928 -7.52706 26.9591 -0.733939 23.5748 3.51599 1.4368e-009 -4.62707e-010 1.15112e-010 2.48482e-009 -7.73527e-010 1.67316e-010 1.4368e-009 -4.62708e-010 1.15108e-010 7.73091 5.47488 0.417314 1.4368e-009 -4.62707e-010 1.1511e-010 2.90554 0.965183 0.102902 1.4368e-009 -4.62707e-010 1.15113e-010 10.2786 0.731801 0.0259123 1.43679e-009 -4.62704e-010 1.1512e-010 2.22167 -0.733487 -0.20892 5.06763e-014 1.6161e-013 2.29416e-013 -89.0313 33.7368 29.8633 15.7766 -8.47906 -29.207 0.216937 13.0651 -1.86979 -1.92082e-009 -3.77121e-010 8.35636e-010 -3.31034e-009 -6.51859e-010 1.47088e-009 -1.92082e-009 -3.77118e-010 8.35641e-010 -7.73091 5.47488 -0.417314 -1.92081e-009 -3.77118e-010 8.35638e-010 -2.90554 0.965183 -0.102902 -1.92081e-009 -3.77119e-010 8.35644e-010 -10.2786 0.731801 -0.0259123 -1.92081e-009 -3.77118e-010 8.35626e-010 -2.22167 -0.733487 0.20892 -2.03217e-016 0 -3.88251e-019 16.1672 -14.0874 20.587 0.0321212 29.1322 1.32489 -37.7518 -25.9188 -55.9447 2.03217e-016 0 3.88251e-019 -7.55585 -18.5115 -25.4217 0.172655 30.339 -0.733942 7.34928 -20.0291 15.9234 
43.645 84.8865 -222.358 -3.07006 7.571 14.7305 1.34099 0.840275 4.32284 -0.452763 -9.2752 1.28618 -7.22793 12.5074 -6.76868 7.96929 -17.8251 -11.5471 -0 0 0 -0 0 0 4.60372e-014 2.08333e-013 2.10629e-013 89.2758 44.0426 -20.8572 -14.6372 -7.48023 26.8453 -0.748393 23.7897 3.55205 2.05217e-009 -4.91344e-010 8.63285e-011 3.54767e-009 -8.11188e-010 1.04314e-010 2.05217e-009 -4.91344e-010 8.63206e-011 7.73091 5.47488 0.417314 2.05217e-009 -4.91343e-010 8.63235e-011 2.90554 0.965183 0.102902 2.05217e-009 -4.91343e-010 8.63277e-011 10.2786 0.731801 0.0259123 2.05216e-009 -4.91341e-010 8.63374e-011 2.22167 -0.733487 -0.20892 4.59701e-014 2.08333e-013 2.10295e-013 -89.4517 33.453 30.5585 15.7326 -8.43936 -29.114 0.218341 13.1481 -1.88171 -2.1922e-009 -4.35603e-010 9.17653e-010 -3.77874e-009 -7.54109e-010 1.61678e-009 -2.1922e-009 -4.35599e-010 9.1766e-010 -7.73091 5.47488 -0.417314 -2.19219e-009 -4.356e-010 9.17657e-010 -2.90554 0.965183 -0.102902 -2.19218e-009 -4.356e-010 9.17664e-010 -10.2786 0.731801 -0.0259123 -2.19219e-009 -4.35599e-010 9.17643e-010 -2.22167 -0.733487 0.20892 -2.03217e-016 0 -3.88251e-019 15.9787 -14.1164 20.4132 0.0296537 29.2508 1.33079 -37.6713 -26.0064 -55.775 2.03217e-016 0 3.88251e-019 -7.78257 -18.3168 -25.5249 0.169946 30.1901 -0.736479 7.63991 -20.0119 16.5642 
